<svg width="25" height="25" viewBox="0 0 25 25" fill="none" xmlns="http://www.w3.org/2000/svg">
<path d="M1.04169 4.16672V10.4167M1.04169 10.4167H7.29169M1.04169 10.4167L5.87502 5.87505C7.31347 4.43903 9.17966 3.50939 11.1924 3.22621C13.2051 2.94303 15.2554 3.32165 17.0342 4.30501C18.8131 5.28838 20.2241 6.82322 21.0548 8.67828C21.8855 10.5333 22.0908 12.6081 21.6398 14.59C21.1888 16.5719 20.1059 18.3535 18.5543 19.6665C17.0027 20.9794 15.0664 21.7525 13.0372 21.8693C11.008 21.9861 8.99583 21.4402 7.30383 20.314C5.61183 19.1877 4.33168 17.5421 3.65627 15.625" stroke="white" stroke-width="1.5" stroke-linecap="round" stroke-linejoin="round"/>
<path d="M12.4608 7.57996V12.8778L15.3274 15.7444" stroke="white" stroke-width="1.5" stroke-linecap="round" stroke-linejoin="round"/>
</svg>
